<mxfile host="app.diagrams.net" modified="2024-04-29T08:09:10.087Z" agent="Mozilla/5.0 (Windows NT 10.0; Win64; x64) AppleWebKit/537.36 (KHTML, like Gecko) Chrome/124.0.0.0 Safari/537.36" etag="DINH6lhudJTIPIrVHT5_" version="24.2.1" type="github">
  <diagram name="Page-1" id="rOPY3Ii176k8vju97JwO">
    <mxGraphModel dx="1017" dy="785" grid="1" gridSize="10" guides="1" tooltips="1" connect="1" arrows="1" fold="1" page="1" pageScale="1" pageWidth="850" pageHeight="1100" math="0" shadow="0">
      <root>
        <mxCell id="0" />
        <mxCell id="1" parent="0" />
      </root>
    </mxGraphModel>
  </diagram>
</mxfile>
